<svg width="459" height="165" viewBox="0 0 459 165" xmlns="http://www.w3.org/2000/svg" lang="en" xml:lang="en"><rect x="2" y="2" stroke-width="4" rx="6" width="455" height="161" stroke="rgba(56,139,253,0.4)" fill="white"/><g font-weight="600" font-size="110pt" font-family="Verdana,Geneva,DejaVu Sans,sans-serif" text-rendering="geometricPrecision"><text x="442" y="301" lengthAdjust="spacingAndGlyphs" textLength="2840" transform="scale(0.123)" fill="black">Kyendy_Gurama 's GitHub Activity</text><svg x="15" y="15" width="25" height="25" viewBox="0 0 16 16"><path fill="black" fill-rule="evenodd" d="M8 0C3.58 0 0 3.58 0 8c0 3.54 2.29 6.53 5.47 7.59.4.07.55-.17.55-.38 0-.19-.01-.82-.01-1.49-2.01.37-2.53-.49-2.69-.94-.09-.23-.48-.94-.82-1.13-.28-.15-.68-.52-.01-.53.63-.01 1.08.58 1.23.82.72 1.21 1.87.87 2.33.66.07-.52.28-.87.51-1.07-1.78-.2-3.64-.89-3.64-3.95 0-.87.31-1.59.82-2.15-.08-.2-.36-1.02.08-2.12 0 0 .67-.21 2.2.82.64-.18 1.32-.27 2-.27.68 0 1.36.09 2 .27 1.53-1.04 2.2-.82 2.2-.82.44 1.1.16 1.92.08 2.12.51.56.82 1.27.82 2.15 0 3.07-1.87 3.75-3.65 3.95.29.25.54.73.54 1.48 0 1.07-.01 1.93-.01 2.2 0 .21.15.46.55.38A8.013 8.013 0 0016 8c0-4.42-3.58-8-8-8z"/></svg><svg x="419" y="15" width="25" height="25" viewBox="0 0 16 16"><path fill="black" fill-rule="evenodd" d="M8 0C3.58 0 0 3.58 0 8c0 3.54 2.29 6.53 5.47 7.59.4.07.55-.17.55-.38 0-.19-.01-.82-.01-1.49-2.01.37-2.53-.49-2.69-.94-.09-.23-.48-.94-.82-1.13-.28-.15-.68-.52-.01-.53.63-.01 1.08.58 1.23.82.72 1.21 1.87.87 2.33.66.07-.52.28-.87.51-1.07-1.78-.2-3.64-.89-3.64-3.95 0-.87.31-1.59.82-2.15-.08-.2-.36-1.02.08-2.12 0 0 .67-.21 2.2.82.64-.18 1.32-.27 2-.27.68 0 1.36.09 2 .27 1.53-1.04 2.2-.82 2.2-.82.44 1.1.16 1.92.08 2.12.51.56.82 1.27.82 2.15 0 3.07-1.87 3.75-3.65 3.95.29.25.54.73.54 1.48 0 1.07-.01 1.93-.01 2.2 0 .21.15.46.55.38A8.013 8.013 0 0016 8c0-4.42-3.58-8-8-8z"/></svg><g transform="translate(0, 60)" fill="black"><g transform="translate(15, 0)"><g transform="scale(0.095)"><text x="0" y="132" textLength="1020" lengthAdjust="spacingAndGlyphs">Repositories</text><text x="2411" y="132" textLength="832" lengthAdjust="spacingAndGlyphs">Non-Forks</text><text x="3611" y="132" textLength="206" lengthAdjust="spacingAndGlyphs">All</text></g></g><g transform="translate(15, 21)"><path fill="black" fill-rule="evenodd" d="M2 2.5A2.5 2.5 0 014.5 0h8.75a.75.75 0 01.75.75v12.5a.75.75 0 01-.75.75h-2.5a.75.75 0 110-1.5h1.75v-2h-8a1 1 0 00-.714 1.7.75.75 0 01-1.072 1.05A2.495 2.495 0 012 11.5v-9zm10.5-1V9h-8c-.356 0-.694.074-1 .208V2.5a1 1 0 011-1h8zM5 12.25v3.25a.25.25 0 00.4.2l1.45-1.087a.25.25 0 01.3 0L8.6 15.7a.25.25 0 00.4-.2v-3.25a.25.25 0 00-.25-.25h-3.5a.25.25 0 00-.25.25z"/><g transform="scale(0.095)"><text lengthAdjust="spacingAndGlyphs" textLength="1312" x="263" y="132">My Repositories</text><text lengthAdjust="spacingAndGlyphs" textLength="210" x="2411" y="132">26</text><text lengthAdjust="spacingAndGlyphs" textLength="210" x="3611" y="132">63</text></g></g><g transform="translate(15, 42)"><path fill="black" fill-rule="evenodd" d="M8 .25a.75.75 0 01.673.418l1.882 3.815 4.21.612a.75.75 0 01.416 1.279l-3.046 2.97.719 4.192a.75.75 0 01-1.088.791L8 12.347l-3.766 1.98a.75.75 0 01-1.088-.79l.72-4.194L.818 6.374a.75.75 0 01.416-1.28l4.21-.611L7.327.668A.75.75 0 018 .25zm0 2.445L6.615 5.5a.75.75 0 01-.564.41l-3.097.45 2.24 2.184a.75.75 0 01.216.664l-.528 3.084 2.769-1.456a.75.75 0 01.698 0l2.77 1.456-.53-3.084a.75.75 0 01.216-.664l2.24-2.183-3.096-.45a.75.75 0 01-.564-.41L8 2.694v.001z"/><g transform="scale(0.095)"><text lengthAdjust="spacingAndGlyphs" textLength="874" x="263" y="132">Starred By</text><text lengthAdjust="spacingAndGlyphs" textLength="105" x="2411" y="132">6</text><text lengthAdjust="spacingAndGlyphs" textLength="210" x="3611" y="132">12</text></g></g><g transform="translate(15, 63)"><path fill="black" fill-rule="evenodd" d="M5 3.25a.75.75 0 11-1.5 0 .75.75 0 011.5 0zm0 2.122a2.25 2.25 0 10-1.5 0v.878A2.25 2.25 0 005.75 8.5h1.5v2.128a2.251 2.251 0 101.5 0V8.5h1.5a2.25 2.25 0 002.25-2.25v-.878a2.25 2.25 0 10-1.5 0v.878a.75.75 0 01-.75.75h-4.5A.75.75 0 015 6.25v-.878zm3.75 7.378a.75.75 0 11-1.5 0 .75.75 0 011.5 0zm3-8.75a.75.75 0 100-1.5.75.75 0 000 1.5z"/><g transform="scale(0.095)"><text lengthAdjust="spacingAndGlyphs" textLength="828" x="263" y="132">Forked By</text><text lengthAdjust="spacingAndGlyphs" textLength="105" x="2411" y="132">7</text><text lengthAdjust="spacingAndGlyphs" textLength="105" x="3611" y="132">7</text></g></g></g></g></svg>
